<svg width="512" height="512" viewBox="0 0 512 512" fill="none" xmlns="http://www.w3.org/2000/svg">
<path d="M394.811 339.29C377.088 347.744 359.011 351.968 339.483 351.968C289.572 351.968 258.116 317.001 258.116 262.422C258.116 205.923 294.28 163.265 342.374 163.265C383.964 163.265 412.898 196.698 412.898 245.124V264.723H301.51C302.237 279.715 303.319 285.868 307.3 293.165C314.53 306.229 328.999 314.682 344.909 314.682C351.417 314.682 357.929 313.92 364.8 311.606C374.925 308.543 381.433 305.081 396.988 294.698L412.898 329.675C404.941 334.285 398.788 337.362 394.811 339.29ZM339.483 197.855C320.315 197.855 307.295 211.691 303.678 235.899H369.495C368.413 208.619 359.729 197.855 339.483 197.855Z" fill="#F98012"/>
<path d="M223.016 29.3967C244.498 16.2174 271.965 24.0594 284.408 46.8893C296.829 69.7636 289.51 98.9548 267.966 112.134C246.444 125.313 218.995 117.511 206.574 94.6593C194.157 71.8072 201.533 42.5938 223.016 29.3967Z" fill="#F98012"/>
<path d="M132.964 125.101C145.385 102.288 172.852 94.4731 194.356 107.63C215.878 120.832 223.259 150.023 210.816 172.875C198.395 195.727 170.928 203.565 149.424 190.368C127.941 177.188 120.582 147.957 132.964 125.101Z" fill="black"/>
<path d="M100 255.839C100.04 229.484 120.13 208.131 144.951 208.091C169.793 208.091 189.923 229.44 189.879 255.861C189.879 282.237 169.811 303.609 144.951 303.609C120.17 303.609 100.04 282.193 100 255.839Z" fill="#F98012"/>
<path d="M132.964 386.572C120.605 363.742 127.964 334.577 149.424 321.354C170.928 308.152 198.413 315.932 210.816 338.829C223.237 361.676 215.896 390.867 194.356 404.064C172.91 417.244 145.421 409.38 132.964 386.572Z" fill="#F98012"/>
<path d="M223.016 482.275C201.573 469.074 194.215 439.9 206.574 417.053C219.013 394.179 246.479 386.319 267.966 399.56C289.471 412.762 296.869 441.909 284.408 464.801C272.049 487.617 244.542 495.433 223.016 482.275Z" fill="#F98012"/>
</svg>
